<svg xmlns="http://www.w3.org/2000/svg" viewBox="0 0 150 74" role="img" aria-labelledby="title"><title>4Loop</title><defs><linearGradient id="g" x1="0" y1="1" x2="1" y2="0"><stop offset="0" stop-color="#45c9df"/><stop offset="1" stop-color="#0d6689"/></linearGradient></defs><g transform="translate(2 7)" fill="none" stroke="url(#g)" stroke-width="7" stroke-linecap="square" stroke-linejoin="miter"><path d="M28 4L8 39h27V20"/><path d="M39 20c8-12 22-14 31-5 10 10 7 25-4 32-12 7-26 3-31-8-5-10 0-21 9-26"/><path d="M53 20c7-10 20-12 29-4 10 9 9 24 0 33-9 9-24 9-33 1"/></g><text x="67" y="54" fill="#155f80" font-family="Arial,Helvetica,sans-serif" font-size="33" font-weight="700" letter-spacing="-2">OOP</text></svg>